<svg width="24" height="23" viewBox="0 0 24 23" fill="none" xmlns="http://www.w3.org/2000/svg">
<path fill-rule="evenodd" clip-rule="evenodd" d="M5.75319 3.14775C5.75319 4.45038 4.78745 5.50458 3.27718 5.50458C1.82576 5.50458 0.860008 4.45038 0.889896 3.14775C0.860008 1.7818 1.82573 0.758301 3.30611 0.758301C4.78742 0.758301 5.72424 1.7818 5.75319 3.14775ZM1.01132 22.5396V7.36644H5.60281V22.5386H1.01132V22.5396Z" fill="#FFFEF2"/>
<path fill-rule="evenodd" clip-rule="evenodd" d="M9.2853 12.2091C9.2853 10.3166 9.22459 8.70314 9.16388 7.36884H13.152L13.364 9.44751H13.4546C14.0589 8.4854 15.5692 7.02832 18.0163 7.02832C21.0368 7.02832 23.3027 9.07628 23.3027 13.5425V22.542H18.7111V14.1334C18.7111 12.1775 18.0471 10.8441 16.3855 10.8441C15.1162 10.8441 14.3616 11.7439 14.0599 12.612C13.9385 12.9228 13.8787 13.3564 13.8787 13.7919V22.542H9.28716V12.2091H9.2853Z" fill="#FFFEF2"/>
</svg>
